<svg width="145" height="146" viewBox="0 0 145 146" fill="none" xmlns="http://www.w3.org/2000/svg">
<g clip-path="url(#clip0_13019_140)">
<mask id="path-1-inside-1_13019_140" fill="white">
<path d="M0 8C0 3.58173 3.58172 0 8 0H136.413C140.831 0 144.413 3.58172 144.413 8V138C144.413 142.418 140.831 146 136.413 146H7.99999C3.58172 146 0 142.418 0 138V8Z"/>
</mask>
<path d="M0 8C0 3.58173 3.58172 0 8 0H136.413C140.831 0 144.413 3.58172 144.413 8V138C144.413 142.418 140.831 146 136.413 146H7.99999C3.58172 146 0 142.418 0 138V8Z" fill="#FAF9F5"/>
<path d="M1.94928 72.8495H72.1169V143.761L1.94928 72.8495Z" fill="#FC4C02"/>
<path d="M142.284 143.761L72.1169 72.8495L1.94928 2.67896M72.1169 72.8495H1.94928L72.1169 143.761V72.8495Z" stroke="black" stroke-width="1.5"/>
</g>
<path d="M8 0V1.5H136.413V0V-1.5H8V0ZM144.413 8H142.913V138H144.413H145.913V8H144.413ZM136.413 146V144.5H7.99999V146V147.5H136.413V146ZM0 138H1.5V8H0H-1.5V138H0ZM7.99999 146V144.5C4.41014 144.5 1.5 141.59 1.5 138H0H-1.5C-1.5 143.247 2.75329 147.5 7.99999 147.5V146ZM144.413 138H142.913C142.913 141.59 140.003 144.5 136.413 144.5V146V147.5C141.66 147.5 145.913 143.247 145.913 138H144.413ZM136.413 0V1.5C140.003 1.5 142.913 4.41015 142.913 8H144.413H145.913C145.913 2.7533 141.66 -1.5 136.413 -1.5V0ZM8 0V-1.5C2.75329 -1.5 -1.5 2.7533 -1.5 8H0H1.5C1.5 4.41015 4.41015 1.5 8 1.5V0Z" fill="black" mask="url(#path-1-inside-1_13019_140)"/>
<defs>
<clipPath id="clip0_13019_140">
<path d="M0 8C0 3.58173 3.58172 0 8 0H136.413C140.831 0 144.413 3.58172 144.413 8V138C144.413 142.418 140.831 146 136.413 146H7.99999C3.58172 146 0 142.418 0 138V8Z" fill="white"/>
</clipPath>
</defs>
</svg>
